<mxfile host="app.diagrams.net" modified="2021-06-30T12:05:04.007Z" agent="5.0 (Windows)" etag="P5URGyt5t2lc2mDFqoO0" version="14.8.2" type="github">
  <diagram id="C5RBs43oDa-KdzZeNtuy" name="Page-1">
    <mxGraphModel dx="2858" dy="1089" grid="1" gridSize="10" guides="1" tooltips="1" connect="1" arrows="1" fold="1" page="1" pageScale="1" pageWidth="827" pageHeight="1169" math="0" shadow="0">
      <root>
        <mxCell id="WIyWlLk6GJQsqaUBKTNV-0" />
        <mxCell id="WIyWlLk6GJQsqaUBKTNV-1" parent="WIyWlLk6GJQsqaUBKTNV-0" />
        <mxCell id="CQhyS9DSKaNMiEtodsXK-0" value="" style="rounded=1;whiteSpace=wrap;html=1;arcSize=3;fillColor=#f5f5f5;strokeColor=#666666;gradientColor=#b3b3b3;" vertex="1" parent="WIyWlLk6GJQsqaUBKTNV-1">
          <mxGeometry x="-240" y="120" width="780" height="540" as="geometry" />
        </mxCell>
        <mxCell id="CQhyS9DSKaNMiEtodsXK-2" value="&lt;font style=&quot;font-size: 22px&quot;&gt;COVID 19 TRACKER&lt;/font&gt;" style="text;html=1;strokeColor=none;fillColor=none;align=center;verticalAlign=middle;whiteSpace=wrap;rounded=0;" vertex="1" parent="WIyWlLk6GJQsqaUBKTNV-1">
          <mxGeometry x="-190" y="140" width="220" height="40" as="geometry" />
        </mxCell>
        <mxCell id="CQhyS9DSKaNMiEtodsXK-3" value="" style="rounded=1;whiteSpace=wrap;html=1;fillColor=#f5f5f5;strokeColor=#666666;gradientColor=#b3b3b3;" vertex="1" parent="WIyWlLk6GJQsqaUBKTNV-1">
          <mxGeometry x="40" y="145" width="170" height="30" as="geometry" />
        </mxCell>
        <mxCell id="CQhyS9DSKaNMiEtodsXK-4" value="Wordwide" style="text;html=1;align=center;verticalAlign=middle;whiteSpace=wrap;rounded=0;" vertex="1" parent="WIyWlLk6GJQsqaUBKTNV-1">
          <mxGeometry x="80" y="150" width="90" height="20" as="geometry" />
        </mxCell>
        <mxCell id="CQhyS9DSKaNMiEtodsXK-6" value="Coronavirus Cases" style="rounded=1;whiteSpace=wrap;html=1;" vertex="1" parent="WIyWlLk6GJQsqaUBKTNV-1">
          <mxGeometry x="-190" y="200" width="120" height="60" as="geometry" />
        </mxCell>
        <mxCell id="CQhyS9DSKaNMiEtodsXK-7" value="Recovered" style="rounded=1;whiteSpace=wrap;html=1;gradientColor=#b3b3b3;fillColor=#f5f5f5;strokeColor=#666666;" vertex="1" parent="WIyWlLk6GJQsqaUBKTNV-1">
          <mxGeometry x="-40" y="200" width="120" height="60" as="geometry" />
        </mxCell>
        <mxCell id="CQhyS9DSKaNMiEtodsXK-8" value="Deaths" style="rounded=1;whiteSpace=wrap;html=1;gradientColor=#b3b3b3;fillColor=#f5f5f5;strokeColor=#666666;" vertex="1" parent="WIyWlLk6GJQsqaUBKTNV-1">
          <mxGeometry x="110" y="200" width="120" height="60" as="geometry" />
        </mxCell>
        <mxCell id="CQhyS9DSKaNMiEtodsXK-9" value="" style="rounded=1;whiteSpace=wrap;html=1;arcSize=5;gradientColor=#b3b3b3;fillColor=#f5f5f5;strokeColor=#666666;" vertex="1" parent="WIyWlLk6GJQsqaUBKTNV-1">
          <mxGeometry x="-190" y="290" width="420" height="300" as="geometry" />
        </mxCell>
        <mxCell id="CQhyS9DSKaNMiEtodsXK-11" value="Coronavirus Cases" style="rounded=1;whiteSpace=wrap;html=1;gradientColor=#b3b3b3;fillColor=#f5f5f5;strokeColor=#666666;" vertex="1" parent="WIyWlLk6GJQsqaUBKTNV-1">
          <mxGeometry x="-190" y="200" width="120" height="60" as="geometry" />
        </mxCell>
        <mxCell id="CQhyS9DSKaNMiEtodsXK-13" value="" style="shape=image;html=1;verticalAlign=top;verticalLabelPosition=bottom;labelBackgroundColor=#ffffff;imageAspect=0;aspect=fixed;image=https://cdn3.iconfinder.com/data/icons/logos-brands-3/24/logo_brand_brands_logos_maps_google-128.png" vertex="1" parent="WIyWlLk6GJQsqaUBKTNV-1">
          <mxGeometry x="-97" y="320" width="234" height="234" as="geometry" />
        </mxCell>
        <mxCell id="CQhyS9DSKaNMiEtodsXK-14" value="" style="rounded=1;whiteSpace=wrap;html=1;arcSize=5;gradientColor=#b3b3b3;fillColor=#f5f5f5;strokeColor=#666666;" vertex="1" parent="WIyWlLk6GJQsqaUBKTNV-1">
          <mxGeometry x="260" y="145" width="220" height="445" as="geometry" />
        </mxCell>
        <mxCell id="CQhyS9DSKaNMiEtodsXK-15" value="&lt;h3 align=&quot;left&quot;&gt;Worldwide new deaths&lt;/h3&gt;" style="text;html=1;strokeColor=none;fillColor=none;align=left;verticalAlign=middle;whiteSpace=wrap;rounded=0;" vertex="1" parent="WIyWlLk6GJQsqaUBKTNV-1">
          <mxGeometry x="270" y="410" width="170" height="20" as="geometry" />
        </mxCell>
        <mxCell id="CQhyS9DSKaNMiEtodsXK-16" value="&lt;h3&gt;Live Cases by Country&lt;/h3&gt;" style="text;html=1;strokeColor=none;fillColor=none;align=left;verticalAlign=middle;whiteSpace=wrap;rounded=0;" vertex="1" parent="WIyWlLk6GJQsqaUBKTNV-1">
          <mxGeometry x="270" y="155" width="170" height="20" as="geometry" />
        </mxCell>
        <mxCell id="CQhyS9DSKaNMiEtodsXK-17" value="Z" style="shape=image;html=1;verticalAlign=top;verticalLabelPosition=bottom;labelBackgroundColor=#ffffff;imageAspect=0;aspect=fixed;image=https://cdn3.iconfinder.com/data/icons/forall/110/chart-128.png" vertex="1" parent="WIyWlLk6GJQsqaUBKTNV-1">
          <mxGeometry x="300" y="450" width="128" height="128" as="geometry" />
        </mxCell>
        <mxCell id="CQhyS9DSKaNMiEtodsXK-31" value="" style="shape=table;html=1;whiteSpace=wrap;startSize=0;container=1;collapsible=0;childLayout=tableLayout;columnLines=0;rowLines=0;align=left;gradientColor=#b3b3b3;fillColor=#f5f5f5;strokeColor=#666666;" vertex="1" parent="WIyWlLk6GJQsqaUBKTNV-1">
          <mxGeometry x="274" y="200" width="180" height="120" as="geometry" />
        </mxCell>
        <mxCell id="CQhyS9DSKaNMiEtodsXK-32" value="" style="shape=partialRectangle;html=1;whiteSpace=wrap;collapsible=0;dropTarget=0;pointerEvents=0;fillColor=none;top=0;left=0;bottom=0;right=0;points=[[0,0.5],[1,0.5]];portConstraint=eastwest;" vertex="1" parent="CQhyS9DSKaNMiEtodsXK-31">
          <mxGeometry width="180" height="40" as="geometry" />
        </mxCell>
        <mxCell id="CQhyS9DSKaNMiEtodsXK-33" value="Value 1" style="shape=partialRectangle;html=1;whiteSpace=wrap;connectable=0;fillColor=none;top=0;left=0;bottom=0;right=0;overflow=hidden;" vertex="1" parent="CQhyS9DSKaNMiEtodsXK-32">
          <mxGeometry width="60" height="40" as="geometry" />
        </mxCell>
        <mxCell id="CQhyS9DSKaNMiEtodsXK-34" value="Value 2" style="shape=partialRectangle;html=1;whiteSpace=wrap;connectable=0;fillColor=none;top=0;left=0;bottom=0;right=0;overflow=hidden;" vertex="1" parent="CQhyS9DSKaNMiEtodsXK-32">
          <mxGeometry x="60" width="60" height="40" as="geometry" />
        </mxCell>
        <mxCell id="CQhyS9DSKaNMiEtodsXK-35" value="Value 3" style="shape=partialRectangle;html=1;whiteSpace=wrap;connectable=0;fillColor=none;top=0;left=0;bottom=0;right=0;overflow=hidden;" vertex="1" parent="CQhyS9DSKaNMiEtodsXK-32">
          <mxGeometry x="120" width="60" height="40" as="geometry" />
        </mxCell>
        <mxCell id="CQhyS9DSKaNMiEtodsXK-36" value="" style="shape=partialRectangle;html=1;whiteSpace=wrap;collapsible=0;dropTarget=0;pointerEvents=0;fillColor=none;top=0;left=0;bottom=0;right=0;points=[[0,0.5],[1,0.5]];portConstraint=eastwest;" vertex="1" parent="CQhyS9DSKaNMiEtodsXK-31">
          <mxGeometry y="40" width="180" height="40" as="geometry" />
        </mxCell>
        <mxCell id="CQhyS9DSKaNMiEtodsXK-37" value="Value 4" style="shape=partialRectangle;html=1;whiteSpace=wrap;connectable=0;fillColor=none;top=0;left=0;bottom=0;right=0;overflow=hidden;" vertex="1" parent="CQhyS9DSKaNMiEtodsXK-36">
          <mxGeometry width="60" height="40" as="geometry" />
        </mxCell>
        <mxCell id="CQhyS9DSKaNMiEtodsXK-38" value="Value 5" style="shape=partialRectangle;html=1;whiteSpace=wrap;connectable=0;fillColor=none;top=0;left=0;bottom=0;right=0;overflow=hidden;" vertex="1" parent="CQhyS9DSKaNMiEtodsXK-36">
          <mxGeometry x="60" width="60" height="40" as="geometry" />
        </mxCell>
        <mxCell id="CQhyS9DSKaNMiEtodsXK-39" value="Value 6" style="shape=partialRectangle;html=1;whiteSpace=wrap;connectable=0;fillColor=none;top=0;left=0;bottom=0;right=0;overflow=hidden;" vertex="1" parent="CQhyS9DSKaNMiEtodsXK-36">
          <mxGeometry x="120" width="60" height="40" as="geometry" />
        </mxCell>
        <mxCell id="CQhyS9DSKaNMiEtodsXK-40" value="" style="shape=partialRectangle;html=1;whiteSpace=wrap;collapsible=0;dropTarget=0;pointerEvents=0;fillColor=none;top=0;left=0;bottom=0;right=0;points=[[0,0.5],[1,0.5]];portConstraint=eastwest;" vertex="1" parent="CQhyS9DSKaNMiEtodsXK-31">
          <mxGeometry y="80" width="180" height="40" as="geometry" />
        </mxCell>
        <mxCell id="CQhyS9DSKaNMiEtodsXK-41" value="Value 7" style="shape=partialRectangle;html=1;whiteSpace=wrap;connectable=0;fillColor=none;top=0;left=0;bottom=0;right=0;overflow=hidden;" vertex="1" parent="CQhyS9DSKaNMiEtodsXK-40">
          <mxGeometry width="60" height="40" as="geometry" />
        </mxCell>
        <mxCell id="CQhyS9DSKaNMiEtodsXK-42" value="Value 8" style="shape=partialRectangle;html=1;whiteSpace=wrap;connectable=0;fillColor=none;top=0;left=0;bottom=0;right=0;overflow=hidden;" vertex="1" parent="CQhyS9DSKaNMiEtodsXK-40">
          <mxGeometry x="60" width="60" height="40" as="geometry" />
        </mxCell>
        <mxCell id="CQhyS9DSKaNMiEtodsXK-43" value="Value 9" style="shape=partialRectangle;html=1;whiteSpace=wrap;connectable=0;fillColor=none;top=0;left=0;bottom=0;right=0;overflow=hidden;" vertex="1" parent="CQhyS9DSKaNMiEtodsXK-40">
          <mxGeometry x="120" width="60" height="40" as="geometry" />
        </mxCell>
      </root>
    </mxGraphModel>
  </diagram>
</mxfile>
